<svg width="334" height="117" viewBox="0 0 334 117" fill="none" xmlns="http://www.w3.org/2000/svg">
<path d="M72.2632 37.5115C80.6441 48.1376 89.712 57.8088 96.9599 69.2312C100.436 74.7101 100.495 86.6925 96.0194 92.8769C92.7957 97.3282 87.7587 98.4858 86.459 98.9325C82.4031 100.327 77.43 99.3097 68.5904 97.4912C64.099 96.5692 60.423 95.5364 57.8491 94.7443C59.6011 92.8529 61.3499 90.9615 63.1019 89.0701C64.8412 89.4027 67.9534 90.0015 71.8683 90.8031C79.7554 92.4189 81.8196 92.9891 84.5049 91.95C88.0503 90.5781 89.8087 87.505 90.2387 86.7319C93.8701 80.1801 88.9774 71.5666 88.7767 71.2498C82.7116 59.312 78.3283 49.4493 72.2632 37.5115Z" fill="url(#paint0_linear_92_348)"/>
<path d="M37.6382 44.0909C48.314 35.749 58.0304 26.7234 69.5062 19.5092C75.0107 16.0488 87.0492 15.9906 93.2624 20.4453C97.7346 23.654 98.8975 28.6676 99.3463 29.9612C100.747 33.9983 99.7253 38.9482 97.8983 47.7466C96.972 52.2172 95.9344 55.8761 95.1386 58.438C93.2383 56.6941 91.3381 54.9535 89.4378 53.2096C89.772 51.4785 90.3736 48.3808 91.1789 44.4841C92.8023 36.6336 93.3752 34.579 92.3312 31.9062C90.9529 28.3773 87.8654 26.6271 87.0888 26.1991C80.5063 22.5846 71.8525 27.4546 71.5342 27.6543C59.5406 33.6912 49.6318 38.0541 37.6382 44.0909Z" fill="url(#paint1_linear_92_348)"/>
<path d="M44.7138 79.2366C36.3329 68.6104 27.265 58.9393 20.0171 47.5168C16.5406 42.0379 16.4821 30.0555 20.9576 23.8712C24.1813 19.4198 29.2184 18.2623 30.518 17.8156C34.574 16.4215 39.547 17.4383 48.3866 19.2569C52.8781 20.1788 56.5541 21.2117 59.1279 22.0037C57.3759 23.8951 55.6271 25.7866 53.8751 27.678C52.1359 27.3453 49.0237 26.7465 45.1088 25.945C37.2216 24.3292 35.1575 23.7589 32.4721 24.7981C28.9267 26.1699 27.1684 29.2431 26.7383 30.0161C23.1069 36.568 27.9997 45.1815 28.2004 45.4983C34.2655 57.4361 38.6487 67.2988 44.7138 79.2366Z" fill="url(#paint2_linear_92_348)"/>
<path d="M79.3618 72.9091C68.686 81.251 58.9696 90.2766 47.4938 97.4908C41.9893 100.951 29.9508 101.009 23.7376 96.5547C19.2654 93.346 18.1025 88.3324 17.6537 87.0388C16.2531 83.0017 17.2747 78.0518 19.1017 69.2534C20.028 64.7828 21.0656 61.1239 21.8614 58.562C23.7617 60.3059 25.6619 62.0465 27.5622 63.7904C27.228 65.5215 26.6264 68.6192 25.8211 72.5159C24.1977 80.3664 23.6248 82.421 24.6688 85.0938C26.0471 88.6227 29.1346 90.3729 29.9112 90.8009C36.4937 94.4154 45.1475 89.5454 45.4658 89.3457C57.4594 83.3088 67.3682 78.9459 79.3618 72.9091Z" fill="url(#paint3_linear_92_348)"/>
<path d="M57.4639 64.1305C60.6112 64.1305 63.1627 61.5929 63.1627 58.4626C63.1627 55.3323 60.6112 52.7947 57.4639 52.7947C54.3166 52.7947 51.7651 55.3323 51.7651 58.4626C51.7651 61.5929 54.3166 64.1305 57.4639 64.1305Z" fill="url(#paint4_linear_92_348)"/>
<path d="M114.526 59.0001H110.571L116.597 41.5455H121.352L127.369 59.0001H123.415L119.043 45.5342H118.906L114.526 59.0001ZM114.278 52.1393H123.619V55.02H114.278V52.1393Z" fill="#01FAF3"/>
<path d="M138.541 46.5654C138.472 45.8779 138.18 45.3438 137.663 44.9631C137.146 44.5825 136.444 44.3921 135.558 44.3921C134.955 44.3921 134.447 44.4773 134.032 44.6478C133.617 44.8126 133.299 45.0427 133.077 45.3381C132.862 45.6336 132.754 45.9688 132.754 46.3438C132.742 46.6563 132.808 46.929 132.95 47.162C133.097 47.395 133.299 47.5967 133.555 47.7671C133.81 47.9319 134.106 48.0768 134.441 48.2018C134.776 48.3211 135.134 48.4234 135.515 48.5086L137.083 48.8836C137.844 49.054 138.543 49.2813 139.18 49.5654C139.816 49.8495 140.367 50.1989 140.833 50.6137C141.299 51.0285 141.66 51.5171 141.916 52.0796C142.177 52.6421 142.31 53.287 142.316 54.0143C142.31 55.0825 142.038 56.0086 141.498 56.7927C140.964 57.5711 140.191 58.1762 139.18 58.608C138.174 59.0342 136.961 59.2472 135.541 59.2472C134.131 59.2472 132.904 59.0313 131.859 58.5995C130.819 58.1677 130.006 57.5285 129.421 56.6819C128.842 55.8296 128.538 54.7756 128.509 53.52H132.08C132.12 54.1052 132.288 54.5938 132.583 54.9859C132.884 55.3722 133.285 55.6648 133.785 55.8637C134.291 56.0569 134.862 56.1535 135.498 56.1535C136.123 56.1535 136.666 56.0626 137.126 55.8807C137.592 55.6989 137.952 55.4461 138.208 55.1222C138.464 54.7984 138.592 54.4262 138.592 54.0057C138.592 53.6137 138.475 53.2842 138.242 53.0171C138.015 52.7501 137.68 52.5228 137.237 52.3353C136.799 52.1478 136.262 51.9773 135.626 51.8239L133.725 51.3467C132.254 50.9887 131.092 50.429 130.239 49.6677C129.387 48.9063 128.964 47.8807 128.969 46.591C128.964 45.5342 129.245 44.6109 129.813 43.8211C130.387 43.0313 131.174 42.4148 132.174 41.9717C133.174 41.5285 134.31 41.3069 135.583 41.3069C136.879 41.3069 138.009 41.5285 138.975 41.9717C139.947 42.4148 140.702 43.0313 141.242 43.8211C141.782 44.6109 142.06 45.5256 142.077 46.5654H138.541Z" fill="#01FAF3"/>
<path d="M144.134 44.5881V41.5455H158.469V44.5881H153.125V59.0001H149.477V44.5881H144.134Z" fill="#01FAF3"/>
<path d="M160.83 59.0001V41.5455H167.716C169.034 41.5455 170.159 41.7813 171.091 42.2529C172.028 42.7188 172.742 43.3807 173.23 44.2387C173.724 45.091 173.972 46.0938 173.972 47.2472C173.972 48.4063 173.722 49.4035 173.222 50.2387C172.722 51.0682 171.997 51.7046 171.048 52.1478C170.105 52.591 168.963 52.8126 167.622 52.8126H163.011V49.8467H167.026C167.73 49.8467 168.315 49.7501 168.781 49.5569C169.247 49.3637 169.594 49.0739 169.821 48.6876C170.054 48.3012 170.17 47.8211 170.17 47.2472C170.17 46.6677 170.054 46.179 169.821 45.7813C169.594 45.3836 169.244 45.0825 168.773 44.8779C168.307 44.6677 167.719 44.5626 167.009 44.5626H164.52V59.0001H160.83ZM170.256 51.0569L174.594 59.0001H170.52L166.276 51.0569H170.256Z" fill="#01FAF3"/>
<path d="M192.619 50.2728C192.619 52.1762 192.259 53.7955 191.537 55.1307C190.821 56.466 189.844 57.4859 188.605 58.1904C187.372 58.8893 185.986 59.2387 184.446 59.2387C182.895 59.2387 181.503 58.8864 180.27 58.1819C179.037 57.4773 178.063 56.4575 177.347 55.1222C176.631 53.787 176.273 52.1705 176.273 50.2728C176.273 48.3694 176.631 46.7501 177.347 45.4148C178.063 44.0796 179.037 43.0626 180.27 42.3637C181.503 41.6592 182.895 41.3069 184.446 41.3069C185.986 41.3069 187.372 41.6592 188.605 42.3637C189.844 43.0626 190.821 44.0796 191.537 45.4148C192.259 46.7501 192.619 48.3694 192.619 50.2728ZM188.878 50.2728C188.878 49.0398 188.693 48.0001 188.324 47.1535C187.96 46.3069 187.446 45.6648 186.781 45.2273C186.117 44.7898 185.338 44.5711 184.446 44.5711C183.554 44.5711 182.776 44.7898 182.111 45.2273C181.446 45.6648 180.929 46.3069 180.56 47.1535C180.196 48.0001 180.014 49.0398 180.014 50.2728C180.014 51.5057 180.196 52.5455 180.56 53.3921C180.929 54.2387 181.446 54.8807 182.111 55.3182C182.776 55.7557 183.554 55.9745 184.446 55.9745C185.338 55.9745 186.117 55.7557 186.781 55.3182C187.446 54.8807 187.96 54.2387 188.324 53.3921C188.693 52.5455 188.878 51.5057 188.878 50.2728Z" fill="#01FAF3"/>
<path d="M203.441 48.8325V51.7131H195.481V48.8325H203.441Z" fill="#01FAF3"/>
<path d="M216.072 46.5654C216.004 45.8779 215.711 45.3438 215.194 44.9631C214.677 44.5825 213.975 44.3921 213.089 44.3921C212.487 44.3921 211.978 44.4773 211.563 44.6478C211.148 44.8126 210.83 45.0427 210.609 45.3381C210.393 45.6336 210.285 45.9688 210.285 46.3438C210.273 46.6563 210.339 46.929 210.481 47.162C210.629 47.395 210.83 47.5967 211.086 47.7671C211.342 47.9319 211.637 48.0768 211.972 48.2018C212.308 48.3211 212.666 48.4234 213.046 48.5086L214.614 48.8836C215.376 49.054 216.075 49.2813 216.711 49.5654C217.347 49.8495 217.898 50.1989 218.364 50.6137C218.83 51.0285 219.191 51.5171 219.447 52.0796C219.708 52.6421 219.842 53.287 219.847 54.0143C219.842 55.0825 219.569 56.0086 219.029 56.7927C218.495 57.5711 217.722 58.1762 216.711 58.608C215.705 59.0342 214.492 59.2472 213.072 59.2472C211.663 59.2472 210.435 59.0313 209.39 58.5995C208.35 58.1677 207.538 57.5285 206.952 56.6819C206.373 55.8296 206.069 54.7756 206.041 53.52H209.612C209.651 54.1052 209.819 54.5938 210.114 54.9859C210.416 55.3722 210.816 55.6648 211.316 55.8637C211.822 56.0569 212.393 56.1535 213.029 56.1535C213.654 56.1535 214.197 56.0626 214.657 55.8807C215.123 55.6989 215.484 55.4461 215.739 55.1222C215.995 54.7984 216.123 54.4262 216.123 54.0057C216.123 53.6137 216.006 53.2842 215.773 53.0171C215.546 52.7501 215.211 52.5228 214.768 52.3353C214.33 52.1478 213.793 51.9773 213.157 51.8239L211.256 51.3467C209.785 50.9887 208.623 50.429 207.771 49.6677C206.918 48.9063 206.495 47.8807 206.501 46.591C206.495 45.5342 206.776 44.6109 207.344 43.8211C207.918 43.0313 208.705 42.4148 209.705 41.9717C210.705 41.5285 211.842 41.3069 213.114 41.3069C214.41 41.3069 215.541 41.5285 216.506 41.9717C217.478 42.4148 218.234 43.0313 218.773 43.8211C219.313 44.6109 219.592 45.5256 219.609 46.5654H216.072Z" fill="#01FAF3"/>
<path d="M237.73 47.6563H233.997C233.929 47.1734 233.79 46.7444 233.58 46.3694C233.369 45.9887 233.099 45.6648 232.77 45.3978C232.44 45.1307 232.06 44.9262 231.628 44.7842C231.202 44.6421 230.739 44.5711 230.239 44.5711C229.335 44.5711 228.548 44.7955 227.878 45.2444C227.207 45.6876 226.688 46.3353 226.318 47.1876C225.949 48.0342 225.764 49.0626 225.764 50.2728C225.764 51.5171 225.949 52.5626 226.318 53.4092C226.693 54.2557 227.216 54.895 227.886 55.3268C228.557 55.7586 229.332 55.9745 230.213 55.9745C230.707 55.9745 231.165 55.9092 231.585 55.7785C232.011 55.6478 232.389 55.4575 232.719 55.2075C233.048 54.9518 233.321 54.6421 233.537 54.2785C233.759 53.9148 233.912 53.5001 233.997 53.0342L237.73 53.0512C237.634 53.8523 237.392 54.6251 237.006 55.3694C236.625 56.108 236.111 56.77 235.463 57.3552C234.821 57.9347 234.054 58.395 233.162 58.7359C232.276 59.0711 231.273 59.2387 230.153 59.2387C228.597 59.2387 227.205 58.8864 225.977 58.1819C224.756 57.4773 223.79 56.4575 223.08 55.1222C222.375 53.787 222.023 52.1705 222.023 50.2728C222.023 48.3694 222.381 46.7501 223.097 45.4148C223.813 44.0796 224.784 43.0626 226.011 42.3637C227.239 41.6592 228.619 41.3069 230.153 41.3069C231.165 41.3069 232.102 41.4489 232.966 41.733C233.835 42.0171 234.605 42.4319 235.276 42.9773C235.946 43.5171 236.492 44.179 236.912 44.9631C237.338 45.7472 237.611 46.645 237.73 47.6563Z" fill="#01FAF3"/>
<path d="M244.067 41.5455V59.0001H240.376V41.5455H244.067Z" fill="#01FAF3"/>
<path d="M268.058 47.6563H264.325C264.257 47.1734 264.118 46.7444 263.908 46.3694C263.697 45.9887 263.428 45.6648 263.098 45.3978C262.768 45.1307 262.388 44.9262 261.956 44.7842C261.53 44.6421 261.067 44.5711 260.567 44.5711C259.663 44.5711 258.876 44.7955 258.206 45.2444C257.536 45.6876 257.016 46.3353 256.646 47.1876C256.277 48.0342 256.092 49.0626 256.092 50.2728C256.092 51.5171 256.277 52.5626 256.646 53.4092C257.021 54.2557 257.544 54.895 258.215 55.3268C258.885 55.7586 259.661 55.9745 260.541 55.9745C261.036 55.9745 261.493 55.9092 261.913 55.7785C262.34 55.6478 262.717 55.4575 263.047 55.2075C263.376 54.9518 263.649 54.6421 263.865 54.2785C264.087 53.9148 264.24 53.5001 264.325 53.0342L268.058 53.0512C267.962 53.8523 267.72 54.6251 267.334 55.3694C266.953 56.108 266.439 56.77 265.791 57.3552C265.149 57.9347 264.382 58.395 263.49 58.7359C262.604 59.0711 261.601 59.2387 260.482 59.2387C258.925 59.2387 257.533 58.8864 256.305 58.1819C255.084 57.4773 254.118 56.4575 253.408 55.1222C252.703 53.787 252.351 52.1705 252.351 50.2728C252.351 48.3694 252.709 46.7501 253.425 45.4148C254.141 44.0796 255.112 43.0626 256.34 42.3637C257.567 41.6592 258.947 41.3069 260.482 41.3069C261.493 41.3069 262.43 41.4489 263.294 41.733C264.163 42.0171 264.933 42.4319 265.604 42.9773C266.274 43.5171 266.82 44.179 267.24 44.9631C267.666 45.7472 267.939 46.645 268.058 47.6563Z" fill="#01FAF3"/>
<path d="M270.705 59.0001V41.5455H274.395V55.9575H281.878V59.0001H270.705Z" fill="#01FAF3"/>
<path d="M295.103 41.5455H298.793V52.8807C298.793 54.1535 298.489 55.2671 297.881 56.2217C297.279 57.1762 296.435 57.9205 295.35 58.4546C294.265 58.983 293.001 59.2472 291.558 59.2472C290.109 59.2472 288.842 58.983 287.756 58.4546C286.671 57.9205 285.827 57.1762 285.225 56.2217C284.623 55.2671 284.322 54.1535 284.322 52.8807V41.5455H288.012V52.5654C288.012 53.2302 288.157 53.8211 288.447 54.3381C288.742 54.8552 289.157 55.2614 289.691 55.5569C290.225 55.8523 290.847 56.0001 291.558 56.0001C292.273 56.0001 292.896 55.8523 293.424 55.5569C293.958 55.2614 294.37 54.8552 294.66 54.3381C294.955 53.8211 295.103 53.2302 295.103 52.5654V41.5455Z" fill="#01FAF3"/>
<path d="M301.83 59.0001V41.5455H308.818C310.102 41.5455 311.173 41.7359 312.031 42.1165C312.889 42.4972 313.534 43.0256 313.966 43.7018C314.398 44.3722 314.614 45.145 314.614 46.02C314.614 46.7018 314.477 47.3012 314.205 47.8182C313.932 48.3296 313.557 48.7501 313.08 49.0796C312.608 49.4035 312.068 49.6336 311.46 49.77V49.9404C312.125 49.9688 312.747 50.1563 313.327 50.5029C313.912 50.8495 314.386 51.3353 314.75 51.9603C315.114 52.5796 315.295 53.3182 315.295 54.1762C315.295 55.1023 315.065 55.929 314.605 56.6563C314.151 57.3779 313.477 57.9489 312.585 58.3694C311.693 58.7898 310.594 59.0001 309.287 59.0001H301.83ZM305.52 55.983H308.528C309.557 55.983 310.307 55.787 310.778 55.395C311.25 54.9972 311.486 54.4688 311.486 53.8097C311.486 53.3268 311.369 52.9006 311.136 52.5313C310.903 52.162 310.571 51.8722 310.139 51.662C309.713 51.4518 309.205 51.3467 308.614 51.3467H305.52V55.983ZM305.52 48.8495H308.256C308.761 48.8495 309.21 48.7614 309.602 48.5853C310 48.4035 310.313 48.1478 310.54 47.8182C310.773 47.4887 310.889 47.0938 310.889 46.6336C310.889 46.0029 310.665 45.4944 310.216 45.108C309.773 44.7217 309.142 44.5285 308.324 44.5285H305.52V48.8495Z" fill="#01FAF3"/>
<path d="M132.665 71.7274H133.545V76.9262C133.545 77.3902 133.46 77.7844 133.29 78.1088C133.119 78.4331 132.879 78.6793 132.569 78.8474C132.259 79.0155 131.893 79.0995 131.472 79.0995C131.074 79.0995 130.72 79.0273 130.41 78.8829C130.1 78.7361 129.856 78.5278 129.678 78.2579C129.501 77.988 129.412 77.6672 129.412 77.2955H130.278C130.278 77.5015 130.329 77.6814 130.431 77.8353C130.535 77.9868 130.677 78.1052 130.857 78.1904C131.037 78.2757 131.242 78.3183 131.472 78.3183C131.725 78.3183 131.94 78.265 132.118 78.1585C132.295 78.0519 132.43 77.8957 132.523 77.6897C132.617 77.4814 132.665 77.2269 132.665 76.9262V71.7274Z" fill="white"/>
<path d="M138.609 79.0001H137.685L140.356 71.7274H141.265L143.935 79.0001H143.012L140.839 72.8779H140.782L138.609 79.0001ZM138.95 76.1592H142.671V76.9404H138.95V76.1592Z" fill="white"/>
<path d="M150.312 79.0001H148.068V71.7274H150.412C151.117 71.7274 151.721 71.873 152.223 72.1642C152.725 72.453 153.11 72.8685 153.377 73.4106C153.645 73.9504 153.778 74.5967 153.778 75.3495C153.778 76.1071 153.643 76.7593 153.374 77.3062C153.104 77.8507 152.711 78.2697 152.195 78.5633C151.678 78.8545 151.051 79.0001 150.312 79.0001ZM148.949 78.2188H150.256C150.857 78.2188 151.355 78.1028 151.751 77.8708C152.146 77.6388 152.441 77.3086 152.635 76.8801C152.829 76.4516 152.926 75.9414 152.926 75.3495C152.926 74.7624 152.83 74.257 152.638 73.8332C152.447 73.407 152.16 73.0803 151.779 72.8531C151.398 72.6234 150.923 72.5086 150.355 72.5086H148.949V78.2188Z" fill="white"/>
<path d="M158.212 79.0001H157.289L159.959 71.7274H160.868L163.539 79.0001H162.616L160.442 72.8779H160.385L158.212 79.0001ZM158.553 76.1592H162.275V76.9404H158.553V76.1592Z" fill="white"/>
<path d="M167.286 71.7274L169.445 77.8495H169.531L171.69 71.7274H172.613L169.943 79.0001H169.033L166.363 71.7274H167.286Z" fill="white"/>
<path d="M176.746 79.0001V71.7274H179.203C179.774 71.7274 180.24 71.8303 180.602 72.0363C180.967 72.2399 181.237 72.5157 181.412 72.8637C181.587 73.2117 181.675 73.6 181.675 74.0285C181.675 74.457 181.587 74.8464 181.412 75.1968C181.239 75.5472 180.972 75.8266 180.609 76.0349C180.247 76.2409 179.783 76.3438 179.217 76.3438H177.456V75.5626H179.189C179.58 75.5626 179.893 75.4951 180.13 75.3602C180.367 75.2252 180.538 75.0429 180.645 74.8133C180.754 74.5813 180.808 74.3197 180.808 74.0285C180.808 73.7373 180.754 73.4769 180.645 73.2472C180.538 73.0176 180.366 72.8377 180.127 72.7075C179.887 72.5749 179.57 72.5086 179.175 72.5086H177.627V79.0001H176.746Z" fill="white"/>
<path d="M190.866 71.7274H191.747V76.5427C191.747 77.0399 191.63 77.4838 191.395 77.8744C191.163 78.2626 190.835 78.5692 190.412 78.7941C189.988 79.0167 189.491 79.1279 188.92 79.1279C188.35 79.1279 187.853 79.0167 187.429 78.7941C187.005 78.5692 186.676 78.2626 186.442 77.8744C186.21 77.4838 186.094 77.0399 186.094 76.5427V71.7274H186.974V76.4717C186.974 76.8268 187.052 77.1428 187.209 77.4198C187.365 77.6945 187.587 77.9111 187.876 78.0697C188.167 78.2259 188.515 78.3041 188.92 78.3041C189.325 78.3041 189.673 78.2259 189.964 78.0697C190.255 77.9111 190.478 77.6945 190.632 77.4198C190.788 77.1428 190.866 76.8268 190.866 76.4717V71.7274Z" fill="white"/>
<path d="M196.506 79.0001V71.7274H198.963C199.531 71.7274 199.998 71.8244 200.362 72.0186C200.727 72.2103 200.997 72.4743 201.172 72.8105C201.347 73.1466 201.435 73.529 201.435 73.9575C201.435 74.386 201.347 74.766 201.172 75.0974C200.997 75.4288 200.728 75.6892 200.366 75.8786C200.003 76.0657 199.541 76.1592 198.977 76.1592H196.989V75.3637H198.949C199.337 75.3637 199.65 75.3069 199.886 75.1933C200.125 75.0796 200.298 74.9186 200.405 74.7103C200.514 74.4996 200.568 74.2487 200.568 73.9575C200.568 73.6663 200.514 73.4118 200.405 73.194C200.296 72.9762 200.122 72.8081 199.883 72.6897C199.644 72.569 199.328 72.5086 198.935 72.5086H197.386V79.0001H196.506ZM199.929 75.733L201.719 79.0001H200.696L198.935 75.733H199.929Z" fill="white"/>
<path d="M216.487 71.7274H217.368V76.5427C217.368 77.0399 217.251 77.4838 217.016 77.8744C216.784 78.2626 216.457 78.5692 216.033 78.7941C215.609 79.0167 215.112 79.1279 214.541 79.1279C213.971 79.1279 213.474 79.0167 213.05 78.7941C212.626 78.5692 212.297 78.2626 212.063 77.8744C211.831 77.4838 211.715 77.0399 211.715 76.5427V71.7274H212.595V76.4717C212.595 76.8268 212.673 77.1428 212.83 77.4198C212.986 77.6945 213.208 77.9111 213.497 78.0697C213.788 78.2259 214.136 78.3041 214.541 78.3041C214.946 78.3041 215.294 78.2259 215.585 78.0697C215.877 77.9111 216.099 77.6945 216.253 77.4198C216.409 77.1428 216.487 76.8268 216.487 76.4717V71.7274Z" fill="white"/>
<path d="M227.894 71.7274V79.0001H227.041L223.078 73.2899H223.007V79.0001H222.127V71.7274H222.979L226.956 77.4518H227.027V71.7274H227.894Z" fill="white"/>
<path d="M233.537 71.7274V79.0001H232.656V71.7274H233.537Z" fill="white"/>
<path d="M238.601 71.7274L240.76 77.8495H240.845L243.004 71.7274H243.927L241.257 79.0001H240.348L237.677 71.7274H238.601Z" fill="white"/>
<path d="M248.06 79.0001V71.7274H252.45V72.5086H248.941V74.966H252.222V75.7472H248.941V78.2188H252.506V79.0001H248.06Z" fill="white"/>
<path d="M257.037 79.0001V71.7274H259.494C260.062 71.7274 260.529 71.8244 260.893 72.0186C261.258 72.2103 261.528 72.4743 261.703 72.8105C261.878 73.1466 261.966 73.529 261.966 73.9575C261.966 74.386 261.878 74.766 261.703 75.0974C261.528 75.4288 261.259 75.6892 260.897 75.8786C260.535 76.0657 260.072 76.1592 259.508 76.1592H257.52V75.3637H259.48C259.868 75.3637 260.181 75.3069 260.418 75.1933C260.657 75.0796 260.829 74.9186 260.936 74.7103C261.045 74.4996 261.099 74.2487 261.099 73.9575C261.099 73.6663 261.045 73.4118 260.936 73.194C260.827 72.9762 260.653 72.8081 260.414 72.6897C260.175 72.569 259.859 72.5086 259.466 72.5086H257.918V79.0001H257.037ZM260.46 75.733L262.25 79.0001H261.227L259.466 75.733H260.46Z" fill="white"/>
<path d="M270.411 73.5455C270.368 73.1857 270.195 72.9063 269.892 72.7075C269.589 72.5086 269.217 72.4092 268.777 72.4092C268.455 72.4092 268.173 72.4613 267.932 72.5654C267.693 72.6696 267.506 72.8128 267.371 72.9951C267.238 73.1774 267.172 73.3846 267.172 73.6166C267.172 73.8107 267.218 73.9776 267.31 74.1173C267.405 74.2546 267.526 74.3694 267.673 74.4617C267.819 74.5517 267.973 74.6263 268.134 74.6855C268.295 74.7423 268.443 74.7884 268.578 74.824L269.317 75.0228C269.506 75.0725 269.717 75.1412 269.949 75.2288C270.183 75.3164 270.407 75.4359 270.62 75.5874C270.836 75.7366 271.013 75.9284 271.153 76.1627C271.292 76.3971 271.362 76.6847 271.362 77.0257C271.362 77.4186 271.259 77.7738 271.053 78.091C270.85 78.4082 270.551 78.6604 270.158 78.8474C269.768 79.0344 269.293 79.1279 268.734 79.1279C268.214 79.1279 267.763 79.0439 267.382 78.8758C267.003 78.7077 266.704 78.4733 266.487 78.1727C266.271 77.872 266.149 77.5228 266.121 77.1251H267.03C267.054 77.3997 267.146 77.627 267.307 77.8069C267.47 77.9845 267.676 78.117 267.925 78.2046C268.176 78.2899 268.446 78.3325 268.734 78.3325C269.071 78.3325 269.373 78.278 269.64 78.1691C269.908 78.0579 270.119 77.904 270.276 77.7075C270.432 77.5086 270.51 77.2766 270.51 77.0115C270.51 76.77 270.443 76.5735 270.308 76.422C270.173 76.2704 269.995 76.1473 269.775 76.0526C269.555 75.9579 269.317 75.8751 269.061 75.8041L268.166 75.5484C267.598 75.385 267.148 75.1518 266.817 74.8488C266.485 74.5458 266.32 74.1492 266.32 73.6592C266.32 73.252 266.43 72.8969 266.65 72.5938C266.872 72.2884 267.171 72.0517 267.545 71.8836C267.921 71.7132 268.341 71.6279 268.806 71.6279C269.274 71.6279 269.691 71.712 270.056 71.8801C270.42 72.0458 270.709 72.2731 270.922 72.5619C271.137 72.8507 271.251 73.1786 271.263 73.5455H270.411Z" fill="white"/>
<path d="M276.691 71.7274V79.0001H275.81V71.7274H276.691Z" fill="white"/>
<path d="M281.059 72.5086V71.7274H286.514V72.5086H284.227V79.0001H283.346V72.5086H281.059Z" fill="white"/>
<path d="M290.248 71.7274H291.256L293.273 75.1222H293.359L295.376 71.7274H296.384L293.756 76.0029V79.0001H292.876V76.0029L290.248 71.7274Z" fill="white"/>
<defs>
<linearGradient id="paint0_linear_92_348" x1="78.3805" y1="36.8993" x2="78.3805" y2="99.4064" gradientUnits="userSpaceOnUse">
<stop stop-color="#04F6F8"/>
<stop offset="1" stop-color="#1293F9"/>
</linearGradient>
<linearGradient id="paint1_linear_92_348" x1="37.0231" y1="38.0021" x2="99.8224" y2="38.0021" gradientUnits="userSpaceOnUse">
<stop stop-color="#04F6F8"/>
<stop offset="1" stop-color="#1293F9"/>
</linearGradient>
<linearGradient id="paint2_linear_92_348" x1="38.5965" y1="79.8488" x2="38.5965" y2="17.3417" gradientUnits="userSpaceOnUse">
<stop stop-color="#04F6F8"/>
<stop offset="1" stop-color="#1293F9"/>
</linearGradient>
<linearGradient id="paint3_linear_92_348" x1="79.9769" y1="78.9979" x2="17.1776" y2="78.9979" gradientUnits="userSpaceOnUse">
<stop stop-color="#04F6F8"/>
<stop offset="1" stop-color="#1293F9"/>
</linearGradient>
<linearGradient id="paint4_linear_92_348" x1="51.7651" y1="58.5619" x2="62.7741" y2="58.5619" gradientUnits="userSpaceOnUse">
<stop stop-color="#08E0F9"/>
<stop offset="1" stop-color="#119DF9"/>
</linearGradient>
</defs>
</svg>
