<svg width="239" height="193" viewBox="0 0 239 193" fill="none" xmlns="http://www.w3.org/2000/svg">
<path d="M136.58 42.4541C146.98 55.6408 158.233 67.6423 167.227 81.8172C171.541 88.6163 171.614 103.486 166.06 111.161C162.06 116.684 155.809 118.121 154.196 118.675C149.163 120.405 142.991 119.143 132.022 116.887C126.448 115.743 121.886 114.461 118.692 113.478C120.866 111.131 123.037 108.784 125.211 106.436C127.369 106.849 131.231 107.592 136.089 108.587C145.877 110.592 148.439 111.3 151.771 110.01C156.171 108.308 158.353 104.494 158.886 103.535C163.393 95.4043 157.321 84.7153 157.072 84.3221C149.546 69.5077 144.106 57.2685 136.58 42.4541Z" fill="url(#paint0_linear_92_368)"/>
<path d="M93.6113 50.6189C106.86 40.2669 118.917 29.0664 133.158 20.1138C139.989 15.8197 154.929 15.7474 162.639 21.2755C168.189 25.2574 169.632 31.4791 170.189 33.0845C171.927 38.0943 170.659 44.2369 168.392 55.1555C167.242 60.7034 165.955 65.2439 164.967 68.4231C162.609 66.2591 160.251 64.0989 157.893 61.9349C158.308 59.7866 159.054 55.9425 160.053 51.1068C162.068 41.3647 162.779 38.815 161.483 35.4981C159.773 31.1189 155.941 28.947 154.978 28.4158C146.809 23.9303 136.07 29.9738 135.675 30.2217C120.791 37.7132 108.495 43.1274 93.6113 50.6189Z" fill="url(#paint1_linear_92_368)"/>
<path d="M102.392 94.2334C91.9915 81.0467 80.7386 69.0452 71.7442 54.8703C67.43 48.0712 67.3573 33.2015 72.9113 25.5269C76.9118 20.003 83.1626 18.5665 84.7755 18.0122C89.8087 16.2821 95.9801 17.544 106.95 19.8008C112.523 20.9449 117.085 22.2266 120.279 23.2095C118.105 25.5567 115.935 27.9039 113.761 30.251C111.602 29.8382 107.74 29.0951 102.882 28.1004C93.0944 26.0953 90.5328 25.3876 87.2004 26.6772C82.8007 28.3796 80.6186 32.1933 80.085 33.1526C75.5785 41.2832 81.6503 51.9722 81.8993 52.3654C89.4259 67.1798 94.8653 79.419 102.392 94.2334Z" fill="url(#paint2_linear_92_368)"/>
<path d="M145.389 86.3811C132.14 96.7331 120.083 107.934 105.842 116.886C99.0107 121.18 84.0714 121.253 76.361 115.724C70.8112 111.743 69.368 105.521 68.8111 103.916C67.073 98.9057 68.3408 92.7631 70.6081 81.8445C71.7575 76.2966 73.0452 71.7561 74.0327 68.5769C76.3909 70.7409 78.749 72.9011 81.1072 75.0651C80.6924 77.2134 79.9459 81.0575 78.9465 85.8932C76.932 95.6353 76.221 98.185 77.5166 101.502C79.227 105.881 83.0585 108.053 84.0223 108.584C92.1909 113.07 102.93 107.026 103.325 106.778C118.209 99.2868 130.505 93.8726 145.389 86.3811Z" fill="url(#paint3_linear_92_368)"/>
<path d="M118.214 75.4873C122.12 75.4873 125.286 72.3382 125.286 68.4536C125.286 64.569 122.12 61.4199 118.214 61.4199C114.309 61.4199 111.142 64.569 111.142 68.4536C111.142 72.3382 114.309 75.4873 118.214 75.4873Z" fill="url(#paint4_linear_92_368)"/>
<path d="M20.9545 155.693H17L23.0256 138.239H27.7812L33.7983 155.693H29.8438L25.4716 142.227H25.3352L20.9545 155.693ZM20.7074 148.832H30.0483V151.713H20.7074V148.832Z" fill="#01FAF3"/>
<path d="M44.9695 143.259C44.9013 142.571 44.6087 142.037 44.0916 141.656C43.5746 141.276 42.8729 141.085 41.9865 141.085C41.3842 141.085 40.8757 141.17 40.4609 141.341C40.0462 141.506 39.728 141.736 39.5064 142.031C39.2905 142.327 39.1825 142.662 39.1825 143.037C39.1712 143.349 39.2365 143.622 39.3786 143.855C39.5263 144.088 39.728 144.29 39.9837 144.46C40.2393 144.625 40.5348 144.77 40.87 144.895C41.2053 145.014 41.5632 145.116 41.9439 145.202L43.5121 145.577C44.2734 145.747 44.9723 145.974 45.6087 146.259C46.245 146.543 46.7962 146.892 47.2621 147.307C47.728 147.722 48.0888 148.21 48.3445 148.773C48.6058 149.335 48.7393 149.98 48.745 150.707C48.7393 151.776 48.4666 152.702 47.9268 153.486C47.3928 154.264 46.62 154.869 45.6087 155.301C44.603 155.727 43.3899 155.94 41.9695 155.94C40.5604 155.94 39.3331 155.724 38.2876 155.293C37.2479 154.861 36.4354 154.222 35.8501 153.375C35.2706 152.523 34.9666 151.469 34.9382 150.213H38.5092C38.549 150.798 38.7166 151.287 39.0121 151.679C39.3132 152.065 39.7138 152.358 40.2138 152.557C40.7195 152.75 41.2905 152.847 41.9268 152.847C42.5518 152.847 43.0945 152.756 43.5547 152.574C44.0206 152.392 44.3814 152.139 44.6371 151.815C44.8928 151.491 45.0206 151.119 45.0206 150.699C45.0206 150.307 44.9041 149.977 44.6712 149.71C44.4439 149.443 44.1087 149.216 43.6655 149.028C43.228 148.841 42.6911 148.67 42.0547 148.517L40.1541 148.04C38.6825 147.682 37.5206 147.122 36.6683 146.361C35.8161 145.599 35.3928 144.574 35.3984 143.284C35.3928 142.227 35.674 141.304 36.2422 140.514C36.8161 139.724 37.603 139.108 38.603 138.665C39.603 138.222 40.7393 138 42.0121 138C43.3075 138 44.4382 138.222 45.4041 138.665C46.3757 139.108 47.1314 139.724 47.6712 140.514C48.2109 141.304 48.4893 142.219 48.5064 143.259H44.9695Z" fill="#01FAF3"/>
<path d="M50.5625 141.281V138.239H64.8977V141.281H59.554V155.693H55.9062V141.281H50.5625Z" fill="#01FAF3"/>
<path d="M67.2585 155.693V138.239H74.1449C75.4631 138.239 76.5881 138.474 77.5199 138.946C78.4574 139.412 79.1705 140.074 79.6591 140.932C80.1534 141.784 80.4006 142.787 80.4006 143.94C80.4006 145.099 80.1506 146.097 79.6506 146.932C79.1506 147.761 78.4261 148.398 77.4773 148.841C76.5341 149.284 75.392 149.506 74.0511 149.506H69.4403V146.54H73.4545C74.1591 146.54 74.7443 146.443 75.2102 146.25C75.6761 146.057 76.0227 145.767 76.25 145.381C76.483 144.994 76.5994 144.514 76.5994 143.94C76.5994 143.361 76.483 142.872 76.25 142.474C76.0227 142.077 75.6733 141.776 75.2017 141.571C74.7358 141.361 74.1477 141.256 73.4375 141.256H70.9489V155.693H67.2585ZM76.6847 147.75L81.0227 155.693H76.9489L72.7045 147.75H76.6847Z" fill="#01FAF3"/>
<path d="M99.0483 146.966C99.0483 148.869 98.6875 150.489 97.9659 151.824C97.25 153.159 96.2727 154.179 95.0341 154.884C93.8011 155.582 92.4148 155.932 90.875 155.932C89.3239 155.932 87.9318 155.58 86.6989 154.875C85.4659 154.17 84.4915 153.151 83.7756 151.815C83.0597 150.48 82.7017 148.864 82.7017 146.966C82.7017 145.063 83.0597 143.443 83.7756 142.108C84.4915 140.773 85.4659 139.756 86.6989 139.057C87.9318 138.352 89.3239 138 90.875 138C92.4148 138 93.8011 138.352 95.0341 139.057C96.2727 139.756 97.25 140.773 97.9659 142.108C98.6875 143.443 99.0483 145.063 99.0483 146.966ZM95.3068 146.966C95.3068 145.733 95.1222 144.693 94.7528 143.847C94.3892 143 93.875 142.358 93.2102 141.92C92.5455 141.483 91.767 141.264 90.875 141.264C89.983 141.264 89.2045 141.483 88.5398 141.92C87.875 142.358 87.358 143 86.9886 143.847C86.625 144.693 86.4432 145.733 86.4432 146.966C86.4432 148.199 86.625 149.239 86.9886 150.085C87.358 150.932 87.875 151.574 88.5398 152.011C89.2045 152.449 89.983 152.668 90.875 152.668C91.767 152.668 92.5455 152.449 93.2102 152.011C93.875 151.574 94.3892 150.932 94.7528 150.085C95.1222 149.239 95.3068 148.199 95.3068 146.966Z" fill="#01FAF3"/>
<path d="M109.87 145.526V148.406H101.91V145.526H109.87Z" fill="#01FAF3"/>
<path d="M122.501 143.259C122.433 142.571 122.14 142.037 121.623 141.656C121.106 141.276 120.404 141.085 119.518 141.085C118.915 141.085 118.407 141.17 117.992 141.341C117.577 141.506 117.259 141.736 117.038 142.031C116.822 142.327 116.714 142.662 116.714 143.037C116.702 143.349 116.768 143.622 116.91 143.855C117.058 144.088 117.259 144.29 117.515 144.46C117.771 144.625 118.066 144.77 118.401 144.895C118.737 145.014 119.094 145.116 119.475 145.202L121.043 145.577C121.805 145.747 122.504 145.974 123.14 146.259C123.776 146.543 124.327 146.892 124.793 147.307C125.259 147.722 125.62 148.21 125.876 148.773C126.137 149.335 126.271 149.98 126.276 150.707C126.271 151.776 125.998 152.702 125.458 153.486C124.924 154.264 124.151 154.869 123.14 155.301C122.134 155.727 120.921 155.94 119.501 155.94C118.092 155.94 116.864 155.724 115.819 155.293C114.779 154.861 113.967 154.222 113.381 153.375C112.802 152.523 112.498 151.469 112.469 150.213H116.04C116.08 150.798 116.248 151.287 116.543 151.679C116.844 152.065 117.245 152.358 117.745 152.557C118.251 152.75 118.822 152.847 119.458 152.847C120.083 152.847 120.626 152.756 121.086 152.574C121.552 152.392 121.913 152.139 122.168 151.815C122.424 151.491 122.552 151.119 122.552 150.699C122.552 150.307 122.435 149.977 122.202 149.71C121.975 149.443 121.64 149.216 121.197 149.028C120.759 148.841 120.222 148.67 119.586 148.517L117.685 148.04C116.214 147.682 115.052 147.122 114.2 146.361C113.347 145.599 112.924 144.574 112.93 143.284C112.924 142.227 113.205 141.304 113.773 140.514C114.347 139.724 115.134 139.108 116.134 138.665C117.134 138.222 118.271 138 119.543 138C120.839 138 121.969 138.222 122.935 138.665C123.907 139.108 124.663 139.724 125.202 140.514C125.742 141.304 126.021 142.219 126.038 143.259H122.501Z" fill="#01FAF3"/>
<path d="M144.159 144.349H140.426C140.358 143.866 140.219 143.438 140.009 143.062C139.798 142.682 139.528 142.358 139.199 142.091C138.869 141.824 138.489 141.619 138.057 141.477C137.631 141.335 137.168 141.264 136.668 141.264C135.764 141.264 134.977 141.489 134.307 141.938C133.636 142.381 133.116 143.028 132.747 143.881C132.378 144.727 132.193 145.756 132.193 146.966C132.193 148.21 132.378 149.256 132.747 150.102C133.122 150.949 133.645 151.588 134.315 152.02C134.986 152.452 135.761 152.668 136.642 152.668C137.136 152.668 137.594 152.602 138.014 152.472C138.44 152.341 138.818 152.151 139.148 151.901C139.477 151.645 139.75 151.335 139.966 150.972C140.188 150.608 140.341 150.193 140.426 149.727L144.159 149.744C144.062 150.545 143.821 151.318 143.435 152.063C143.054 152.801 142.54 153.463 141.892 154.048C141.25 154.628 140.483 155.088 139.591 155.429C138.705 155.764 137.702 155.932 136.582 155.932C135.026 155.932 133.634 155.58 132.406 154.875C131.185 154.17 130.219 153.151 129.509 151.815C128.804 150.48 128.452 148.864 128.452 146.966C128.452 145.063 128.81 143.443 129.526 142.108C130.241 140.773 131.213 139.756 132.44 139.057C133.668 138.352 135.048 138 136.582 138C137.594 138 138.531 138.142 139.395 138.426C140.264 138.71 141.034 139.125 141.705 139.67C142.375 140.21 142.92 140.872 143.341 141.656C143.767 142.44 144.04 143.338 144.159 144.349Z" fill="#01FAF3"/>
<path d="M150.496 138.239V155.693H146.805V138.239H150.496Z" fill="#01FAF3"/>
<path d="M174.487 144.349H170.754C170.686 143.866 170.547 143.438 170.337 143.062C170.126 142.682 169.857 142.358 169.527 142.091C169.197 141.824 168.817 141.619 168.385 141.477C167.959 141.335 167.496 141.264 166.996 141.264C166.092 141.264 165.305 141.489 164.635 141.938C163.964 142.381 163.445 143.028 163.075 143.881C162.706 144.727 162.521 145.756 162.521 146.966C162.521 148.21 162.706 149.256 163.075 150.102C163.45 150.949 163.973 151.588 164.643 152.02C165.314 152.452 166.089 152.668 166.97 152.668C167.464 152.668 167.922 152.602 168.342 152.472C168.768 152.341 169.146 152.151 169.476 151.901C169.805 151.645 170.078 151.335 170.294 150.972C170.516 150.608 170.669 150.193 170.754 149.727L174.487 149.744C174.391 150.545 174.149 151.318 173.763 152.063C173.382 152.801 172.868 153.463 172.22 154.048C171.578 154.628 170.811 155.088 169.919 155.429C169.033 155.764 168.03 155.932 166.911 155.932C165.354 155.932 163.962 155.58 162.734 154.875C161.513 154.17 160.547 153.151 159.837 151.815C159.132 150.48 158.78 148.864 158.78 146.966C158.78 145.063 159.138 143.443 159.854 142.108C160.57 140.773 161.541 139.756 162.768 139.057C163.996 138.352 165.376 138 166.911 138C167.922 138 168.859 138.142 169.723 138.426C170.592 138.71 171.362 139.125 172.033 139.67C172.703 140.21 173.249 140.872 173.669 141.656C174.095 142.44 174.368 143.338 174.487 144.349Z" fill="#01FAF3"/>
<path d="M177.134 155.693V138.239H180.824V152.651H188.307V155.693H177.134Z" fill="#01FAF3"/>
<path d="M201.532 138.239H205.222V149.574C205.222 150.847 204.918 151.96 204.31 152.915C203.708 153.869 202.864 154.614 201.779 155.148C200.694 155.676 199.43 155.94 197.987 155.94C196.538 155.94 195.271 155.676 194.185 155.148C193.1 154.614 192.256 153.869 191.654 152.915C191.052 151.96 190.751 150.847 190.751 149.574V138.239H194.441V149.259C194.441 149.923 194.586 150.514 194.876 151.031C195.171 151.548 195.586 151.955 196.12 152.25C196.654 152.545 197.276 152.693 197.987 152.693C198.702 152.693 199.325 152.545 199.853 152.25C200.387 151.955 200.799 151.548 201.089 151.031C201.384 150.514 201.532 149.923 201.532 149.259V138.239Z" fill="#01FAF3"/>
<path d="M208.259 155.693V138.239H215.247C216.531 138.239 217.602 138.429 218.46 138.81C219.318 139.19 219.963 139.719 220.395 140.395C220.827 141.065 221.043 141.838 221.043 142.713C221.043 143.395 220.906 143.994 220.634 144.511C220.361 145.023 219.986 145.443 219.509 145.773C219.037 146.097 218.497 146.327 217.889 146.463V146.634C218.554 146.662 219.176 146.849 219.756 147.196C220.341 147.543 220.815 148.028 221.179 148.653C221.543 149.273 221.724 150.011 221.724 150.869C221.724 151.795 221.494 152.622 221.034 153.349C220.58 154.071 219.906 154.642 219.014 155.062C218.122 155.483 217.023 155.693 215.716 155.693H208.259ZM211.949 152.676H214.957C215.986 152.676 216.736 152.48 217.207 152.088C217.679 151.69 217.915 151.162 217.915 150.503C217.915 150.02 217.798 149.594 217.565 149.224C217.332 148.855 217 148.565 216.568 148.355C216.142 148.145 215.634 148.04 215.043 148.04H211.949V152.676ZM211.949 145.543H214.685C215.19 145.543 215.639 145.455 216.031 145.278C216.429 145.097 216.741 144.841 216.969 144.511C217.202 144.182 217.318 143.787 217.318 143.327C217.318 142.696 217.094 142.188 216.645 141.801C216.202 141.415 215.571 141.222 214.753 141.222H211.949V145.543Z" fill="#01FAF3"/>
<path d="M39.0937 168.42H39.9743V173.619C39.9743 174.083 39.8891 174.478 39.7187 174.802C39.5482 175.126 39.3079 175.372 38.9978 175.541C38.6876 175.709 38.3219 175.793 37.9005 175.793C37.5028 175.793 37.1488 175.72 36.8387 175.576C36.5286 175.429 36.2847 175.221 36.1072 174.951C35.9296 174.681 35.8408 174.36 35.8408 173.989H36.7073C36.7073 174.195 36.7582 174.375 36.86 174.528C36.9642 174.68 37.1062 174.798 37.2861 174.884C37.4661 174.969 37.6708 175.011 37.9005 175.011C38.1538 175.011 38.3692 174.958 38.5468 174.852C38.7243 174.745 38.8593 174.589 38.9516 174.383C39.0463 174.175 39.0937 173.92 39.0937 173.619V168.42Z" fill="black"/>
<path d="M45.0376 175.693H44.1143L46.7847 168.42H47.6938L50.3643 175.693H49.441L47.2677 169.571H47.2108L45.0376 175.693ZM45.3785 172.852H49.1001V173.634H45.3785V172.852Z" fill="black"/>
<path d="M56.7414 175.693H54.4971V168.42H56.8408C57.5463 168.42 58.15 168.566 58.6519 168.857C59.1538 169.146 59.5385 169.562 59.806 170.104C60.0735 170.643 60.2073 171.29 60.2073 172.043C60.2073 172.8 60.0724 173.452 59.8025 173.999C59.5326 174.544 59.1396 174.963 58.6235 175.256C58.1074 175.548 57.48 175.693 56.7414 175.693ZM55.3778 174.912H56.6846C57.2859 174.912 57.7842 174.796 58.1796 174.564C58.575 174.332 58.8697 174.002 59.0638 173.573C59.258 173.145 59.355 172.634 59.355 172.043C59.355 171.456 59.2591 170.95 59.0674 170.526C58.8756 170.1 58.5892 169.773 58.208 169.546C57.8269 169.317 57.3522 169.202 56.784 169.202H55.3778V174.912Z" fill="black"/>
<path d="M64.6411 175.693H63.7178L66.3882 168.42H67.2973L69.9678 175.693H69.0445L66.8712 169.571H66.8144L64.6411 175.693ZM64.982 172.852H68.7036V173.634H64.982V172.852Z" fill="black"/>
<path d="M73.7153 168.42L75.8744 174.543H75.9596L78.1187 168.42H79.042L76.3715 175.693H75.4624L72.792 168.42H73.7153Z" fill="black"/>
<path d="M83.1748 175.693V168.42H85.6322C86.2027 168.42 86.6691 168.523 87.0313 168.729C87.3959 168.933 87.6658 169.209 87.841 169.557C88.0162 169.905 88.1038 170.293 88.1038 170.722C88.1038 171.15 88.0162 171.54 87.841 171.89C87.6682 172.24 87.4007 172.52 87.0384 172.728C86.6762 172.934 86.2122 173.037 85.6464 173.037H83.885V172.256H85.618C86.0086 172.256 86.3223 172.188 86.559 172.053C86.7958 171.918 86.9674 171.736 87.074 171.506C87.1829 171.274 87.2373 171.013 87.2373 170.722C87.2373 170.43 87.1829 170.17 87.074 169.94C86.9674 169.711 86.7946 169.531 86.5555 169.401C86.3164 169.268 85.9991 169.202 85.6038 169.202H84.0555V175.693H83.1748Z" fill="black"/>
<path d="M97.2952 168.42H98.1759V173.236C98.1759 173.733 98.0587 174.177 97.8243 174.567C97.5923 174.956 97.2644 175.262 96.8406 175.487C96.4169 175.71 95.9197 175.821 95.3492 175.821C94.7786 175.821 94.2815 175.71 93.8577 175.487C93.4339 175.262 93.1048 174.956 92.8705 174.567C92.6385 174.177 92.5225 173.733 92.5225 173.236V168.42H93.4031V173.165C93.4031 173.52 93.4813 173.836 93.6375 174.113C93.7938 174.388 94.0163 174.604 94.3051 174.763C94.5963 174.919 94.9443 174.997 95.3492 174.997C95.754 174.997 96.102 174.919 96.3932 174.763C96.6844 174.604 96.9069 174.388 97.0608 174.113C97.2171 173.836 97.2952 173.52 97.2952 173.165V168.42Z" fill="black"/>
<path d="M102.935 175.693V168.42H105.392C105.96 168.42 106.427 168.518 106.791 168.712C107.156 168.903 107.426 169.167 107.601 169.504C107.776 169.84 107.864 170.222 107.864 170.651C107.864 171.079 107.776 171.459 107.601 171.791C107.426 172.122 107.157 172.382 106.795 172.572C106.432 172.759 105.97 172.852 105.406 172.852H103.418V172.057H105.378C105.766 172.057 106.079 172 106.315 171.886C106.554 171.773 106.727 171.612 106.834 171.403C106.943 171.193 106.997 170.942 106.997 170.651C106.997 170.359 106.943 170.105 106.834 169.887C106.725 169.669 106.551 169.501 106.312 169.383C106.073 169.262 105.757 169.202 105.364 169.202H103.815V175.693H102.935ZM106.358 172.426L108.148 175.693H107.125L105.364 172.426H106.358Z" fill="black"/>
<path d="M122.916 168.42H123.797V173.236C123.797 173.733 123.68 174.177 123.445 174.567C123.213 174.956 122.886 175.262 122.462 175.487C122.038 175.71 121.541 175.821 120.97 175.821C120.4 175.821 119.903 175.71 119.479 175.487C119.055 175.262 118.726 174.956 118.492 174.567C118.26 174.177 118.144 173.733 118.144 173.236V168.42H119.024V173.165C119.024 173.52 119.102 173.836 119.259 174.113C119.415 174.388 119.637 174.604 119.926 174.763C120.217 174.919 120.565 174.997 120.97 174.997C121.375 174.997 121.723 174.919 122.014 174.763C122.305 174.604 122.528 174.388 122.682 174.113C122.838 173.836 122.916 173.52 122.916 173.165V168.42Z" fill="black"/>
<path d="M134.323 168.42V175.693H133.47L129.507 169.983H129.436V175.693H128.556V168.42H129.408L133.385 174.145H133.456V168.42H134.323Z" fill="black"/>
<path d="M139.966 168.42V175.693H139.085V168.42H139.966Z" fill="black"/>
<path d="M145.03 168.42L147.189 174.543H147.274L149.433 168.42H150.356L147.686 175.693H146.777L144.106 168.42H145.03Z" fill="black"/>
<path d="M154.489 175.693V168.42H158.878V169.202H155.37V171.659H158.651V172.44H155.37V174.912H158.935V175.693H154.489Z" fill="black"/>
<path d="M163.466 175.693V168.42H165.923C166.491 168.42 166.958 168.518 167.322 168.712C167.687 168.903 167.957 169.167 168.132 169.504C168.307 169.84 168.395 170.222 168.395 170.651C168.395 171.079 168.307 171.459 168.132 171.791C167.957 172.122 167.688 172.382 167.326 172.572C166.964 172.759 166.501 172.852 165.937 172.852H163.949V172.057H165.909C166.297 172.057 166.61 172 166.846 171.886C167.086 171.773 167.258 171.612 167.365 171.403C167.474 171.193 167.528 170.942 167.528 170.651C167.528 170.359 167.474 170.105 167.365 169.887C167.256 169.669 167.082 169.501 166.843 169.383C166.604 169.262 166.288 169.202 165.895 169.202H164.346V175.693H163.466ZM166.889 172.426L168.679 175.693H167.656L165.895 172.426H166.889Z" fill="black"/>
<path d="M176.84 170.239C176.797 169.879 176.624 169.599 176.321 169.401C176.018 169.202 175.646 169.102 175.206 169.102C174.884 169.102 174.602 169.154 174.361 169.259C174.122 169.363 173.935 169.506 173.8 169.688C173.667 169.871 173.601 170.078 173.601 170.31C173.601 170.504 173.647 170.671 173.739 170.81C173.834 170.948 173.955 171.063 174.102 171.155C174.248 171.245 174.402 171.319 174.563 171.379C174.724 171.435 174.872 171.482 175.007 171.517L175.746 171.716C175.935 171.766 176.146 171.834 176.378 171.922C176.612 172.009 176.836 172.129 177.049 172.281C177.265 172.43 177.442 172.621 177.582 172.856C177.721 173.09 177.791 173.378 177.791 173.719C177.791 174.112 177.688 174.467 177.482 174.784C177.279 175.101 176.98 175.353 176.587 175.541C176.197 175.728 175.722 175.821 175.163 175.821C174.643 175.821 174.192 175.737 173.81 175.569C173.432 175.401 173.133 175.166 172.916 174.866C172.7 174.565 172.578 174.216 172.55 173.818H173.459C173.483 174.093 173.575 174.32 173.736 174.5C173.899 174.678 174.105 174.81 174.354 174.898C174.605 174.983 174.875 175.026 175.163 175.026C175.5 175.026 175.801 174.971 176.069 174.862C176.337 174.751 176.548 174.597 176.705 174.401C176.861 174.202 176.939 173.97 176.939 173.705C176.939 173.463 176.872 173.267 176.737 173.115C176.602 172.964 176.424 172.84 176.204 172.746C175.984 172.651 175.746 172.568 175.49 172.497L174.595 172.241C174.027 172.078 173.577 171.845 173.246 171.542C172.914 171.239 172.749 170.842 172.749 170.352C172.749 169.945 172.859 169.59 173.079 169.287C173.301 168.982 173.6 168.745 173.974 168.577C174.35 168.406 174.77 168.321 175.234 168.321C175.703 168.321 176.12 168.405 176.484 168.573C176.849 168.739 177.138 168.966 177.351 169.255C177.566 169.544 177.68 169.872 177.692 170.239H176.84Z" fill="black"/>
<path d="M183.12 168.42V175.693H182.239V168.42H183.12Z" fill="black"/>
<path d="M187.488 169.202V168.42H192.943V169.202H190.656V175.693H189.775V169.202H187.488Z" fill="black"/>
<path d="M196.677 168.42H197.685L199.702 171.815H199.788L201.805 168.42H202.813L200.185 172.696V175.693H199.305V172.696L196.677 168.42Z" fill="black"/>
<defs>
<linearGradient id="paint0_linear_92_368" x1="144.171" y1="41.6944" x2="144.171" y2="119.263" gradientUnits="userSpaceOnUse">
<stop stop-color="#04F6F8"/>
<stop offset="1" stop-color="#1293F9"/>
</linearGradient>
<linearGradient id="paint1_linear_92_368" x1="92.8481" y1="43.0629" x2="170.78" y2="43.0629" gradientUnits="userSpaceOnUse">
<stop stop-color="#04F6F8"/>
<stop offset="1" stop-color="#1293F9"/>
</linearGradient>
<linearGradient id="paint2_linear_92_368" x1="94.8006" y1="94.9931" x2="94.8006" y2="17.4241" gradientUnits="userSpaceOnUse">
<stop stop-color="#04F6F8"/>
<stop offset="1" stop-color="#1293F9"/>
</linearGradient>
<linearGradient id="paint3_linear_92_368" x1="146.152" y1="93.9371" x2="68.2203" y2="93.9371" gradientUnits="userSpaceOnUse">
<stop stop-color="#04F6F8"/>
<stop offset="1" stop-color="#1293F9"/>
</linearGradient>
<linearGradient id="paint4_linear_92_368" x1="111.142" y1="68.5768" x2="124.804" y2="68.5768" gradientUnits="userSpaceOnUse">
<stop stop-color="#08E0F9"/>
<stop offset="1" stop-color="#119DF9"/>
</linearGradient>
</defs>
</svg>
